<?xml version="1.0" encoding="UTF-8" standalone="no"?>
<svg
   xmlns:dc="http://purl.org/dc/elements/1.1/"
   xmlns:cc="http://creativecommons.org/ns#"
   xmlns:rdf="http://www.w3.org/1999/02/22-rdf-syntax-ns#"
   xmlns:svg="http://www.w3.org/2000/svg"
   xmlns="http://www.w3.org/2000/svg"
   xmlns:sodipodi="http://sodipodi.sourceforge.net/DTD/sodipodi-0.dtd"
   xmlns:inkscape="http://www.inkscape.org/namespaces/inkscape"
   version="1.0"
   width="860px"
   height="117px"
   viewBox="0 0 8600 1170"
   preserveAspectRatio="xMidYMid meet"
   id="svg460"
   sodipodi:docname="logo_full.svg"
   inkscape:version="0.92.3 (2405546, 2018-03-11)">
  <metadata
     id="metadata466">
    <rdf:RDF>
      <cc:Work
         rdf:about="">
        <dc:format>image/svg+xml</dc:format>
        <dc:type
           rdf:resource="http://purl.org/dc/dcmitype/StillImage" />
        <dc:title></dc:title>
      </cc:Work>
    </rdf:RDF>
  </metadata>
  <defs
     id="defs464" />
  <sodipodi:namedview
     pagecolor="#ffffff"
     bordercolor="#666666"
     borderopacity="1"
     objecttolerance="10"
     gridtolerance="10"
     guidetolerance="10"
     inkscape:pageopacity="0"
     inkscape:pageshadow="2"
     inkscape:window-width="1366"
     inkscape:window-height="705"
     id="namedview462"
     showgrid="false"
     inkscape:zoom="0.65612932"
     inkscape:cx="365.59668"
     inkscape:cy="84.218826"
     inkscape:window-x="0"
     inkscape:window-y="30"
     inkscape:window-maximized="1"
     inkscape:current-layer="svg460"
     showguides="true"
     inkscape:guide-bbox="true">
    <sodipodi:guide
       position="1487.218,-948.37092"
       orientation="0,1"
       id="guide1069"
       inkscape:locked="false" />
  </sodipodi:namedview>
  <g
     aria-label="marcelorodovalho"
     style="font-style:normal;font-weight:normal;font-size:400px;line-height:1.25;font-family:sans-serif;letter-spacing:0px;word-spacing:0px;fill:#000000;fill-opacity:1;stroke:none;stroke-width:10"
     id="text1125">
    <path
       d="m 2914.4364,615.56818 h -70.4 v -233.6 q 0,-65.6 -21.6,-96.8 -20.8,-31.2 -62.4,-31.2 -43.2,0 -77.6,31.2 -33.6,30.4 -48,79.2 v 251.2 h -70.4 v -233.6 q 0,-67.2 -20.8,-97.6 -20.8,-30.4 -62.4,-30.4 -42.4,0 -76.8,30.4 -34.4,29.6 -48.8,79.2 v 252 h -70.4 v -417.6 h 64 v 89.6 q 25.6,-46.4 66.4,-71.2 40.8,-25.6 92,-25.6 52.8,0 83.2,28.8 31.2,28 38.4,72.8 56,-101.6 159.2,-101.6 36,0 60,13.6 24.8,12.8 39.2,36.8 14.4,23.2 20.8,55.2 6.4,32 6.4,69.6 z"
       style="font-style:normal;font-variant:normal;font-weight:500;font-stretch:normal;font-size:800px;font-family:Raleway;-inkscape-font-specification:'Raleway Medium';letter-spacing:-27px;fill:#7e7e83;fill-opacity:1;stroke-width:10"
       id="path823" />
    <path
       d="m 3104.0989,623.56818 q -29.6,0 -55.2,-9.6 -25.6,-10.4 -44.8,-28 -18.4,-17.6 -29.6,-40.8 -10.4,-24 -10.4,-52 0,-28.8 12.8,-52 12.8,-24 36,-40.8 24,-16.8 56,-26.4 32.8,-9.6 71.2,-9.6 30.4,0 61.6,5.6 31.2,5.6 55.2,15.2 v -33.6 q 0,-51.2 -28.8,-80 -28.8,-29.6 -81.6,-29.6 -63.2,0 -132.8,48.8 l -23.2,-45.6 q 80.8,-54.4 162.4,-54.4 82.4,0 128,44 46.4,44 46.4,124 v 170.4 q 0,24.8 22.4,25.6 v 60.8 q -11.2,1.6 -18.4,2.4 -7.2,0.8 -15.2,0.8 -20.8,0 -33.6,-12 -12,-12.8 -14.4,-30.4 l -1.6,-29.6 q -28,37.6 -71.2,57.6 -42.4,19.2 -91.2,19.2 z m 18.4,-52.8 q 37.6,0 69.6,-13.6 32.8,-14.4 49.6,-37.6 15.2,-15.2 15.2,-31.2 v -61.6 q -51.2,-20 -106.4,-20 -52.8,0 -86.4,22.4 -32.8,22.4 -32.8,58.4 0,17.6 6.4,32.8 7.2,15.2 19.2,26.4 12.8,11.2 29.6,17.6 16.8,6.4 36,6.4 z"
       style="font-style:normal;font-variant:normal;font-weight:500;font-stretch:normal;font-size:800px;font-family:Raleway;-inkscape-font-specification:'Raleway Medium';letter-spacing:-27px;fill:#7e7e83;fill-opacity:1;stroke-width:10"
       id="path825" />
    <path
       d="m 3634.4489,259.56818 q -52.8,1.6 -93.6,27.2 -40,25.6 -56.8,71.2 v 257.6 h -70.4 v -417.6 h 65.6 v 96.8 q 21.6,-43.2 56.8,-69.6 35.2,-27.2 75.2,-30.4 8,0 13.6,0 5.6,0 9.6,0.8 z"
       style="font-style:normal;font-variant:normal;font-weight:500;font-stretch:normal;font-size:800px;font-family:Raleway;-inkscape-font-specification:'Raleway Medium';letter-spacing:-27px;fill:#7e7e83;fill-opacity:1;stroke-width:10"
       id="path827" />
    <path
       d="m 3639.8989,405.96818 q 0,-44 15.2,-83.2 15.2,-39.2 43.2,-68 28,-29.6 66.4,-46.4 39.2,-17.6 87.2,-17.6 62.4,0 107.2,28 45.6,27.2 68.8,73.6 l -68.8,21.6 q -16,-29.6 -44.8,-45.6 -28.8,-16.8 -64,-16.8 -28.8,0 -54.4,12 -25.6,11.2 -44,32 -18.4,20.8 -29.6,48.8 -10.4,28 -10.4,61.6 0,32.8 11.2,61.6 11.2,28.8 29.6,50.4 19.2,20.8 44,32.8 25.6,12 54.4,12 18.4,0 36,-4.8 18.4,-5.6 32.8,-14.4 15.2,-8.8 26.4,-20 11.2,-12 16,-25.6 l 68.8,20.8 q -9.6,23.2 -27.2,42.4 -16.8,19.2 -40,32.8 -23.2,13.6 -52,21.6 -28,8 -59.2,8 -47.2,0 -86.4,-17.6 -39.2,-17.6 -67.2,-47.2 -28,-29.6 -44,-68.8 -15.2,-40 -15.2,-84 z"
       style="font-style:normal;font-variant:normal;font-weight:500;font-stretch:normal;font-size:800px;font-family:Raleway;-inkscape-font-specification:'Raleway Medium';letter-spacing:-27px;fill:#7e7e83;fill-opacity:1;stroke-width:10"
       id="path829" />
    <path
       d="m 4264.7614,623.56818 q -47.2,0 -86.4,-16.8 -39.2,-17.6 -67.2,-47.2 -28,-29.6 -44,-68.8 -15.2,-40 -15.2,-84 0,-44 15.2,-83.2 16,-39.2 44,-68.8 28.8,-29.6 68,-46.4 39.2,-17.6 86.4,-17.6 47.2,0 85.6,17.6 39.2,17.6 66.4,47.2 27.2,28.8 41.6,68 15.2,38.4 15.2,80 0,8.8 -0.8,16 0,7.2 -0.8,11.2 h -346.4 q 2.4,31.2 14.4,56.8 12,25.6 31.2,44 19.2,18.4 43.2,28.8 24.8,10.4 52,10.4 19.2,0 37.6,-4.8 18.4,-5.6 34.4,-14.4 16,-8.8 28,-21.6 12.8,-12.8 19.2,-28.8 l 60.8,16.8 q -10.4,23.2 -28.8,42.4 -17.6,19.2 -41.6,33.6 -23.2,13.6 -52,21.6 -28.8,8 -60,8 z m 143.2,-244.8 q -2.4,-29.6 -15.2,-54.4 -12,-25.6 -31.2,-43.2 -18.4,-17.6 -43.2,-27.2 -24.8,-10.4 -52.8,-10.4 -28,0 -52.8,10.4 -24.8,9.6 -44,28 -18.4,17.6 -30.4,42.4 -11.2,24.8 -13.6,54.4 z"
       style="font-style:normal;font-variant:normal;font-weight:500;font-stretch:normal;font-size:800px;font-family:Raleway;-inkscape-font-specification:'Raleway Medium';letter-spacing:-27px;fill:#7e7e83;fill-opacity:1;stroke-width:10"
       id="path831" />
    <path
       d="m 4527.9989,31.568176 h 70.4 V 507.56818 q 0,23.2 12,36.8 12.8,12.8 35.2,12.8 8.8,0 20.8,-2.4 12,-3.2 22.4,-7.2 l 11.2,56.8 q -17.6,7.2 -41.6,12 -24,4.8 -42.4,4.8 -40.8,0 -64.8,-23.2 -23.2,-23.2 -23.2,-64.8 z"
       style="font-style:normal;font-variant:normal;font-weight:500;font-stretch:normal;font-size:800px;font-family:Raleway;-inkscape-font-specification:'Raleway Medium';letter-spacing:-27px;fill:#7e7e83;fill-opacity:1;stroke-width:10"
       id="path833" />
    <path
       d="m 4909.9239,623.56818 q -47.2,0 -86.4,-17.6 -38.4,-17.6 -66.4,-47.2 -27.2,-29.6 -42.4,-68.8 -15.2,-39.2 -15.2,-82.4 0,-44 15.2,-83.2 16,-39.2 43.2,-68.8 28,-29.6 66.4,-47.2 39.2,-17.6 85.6,-17.6 46.4,0 85.6,17.6 39.2,17.6 66.4,47.2 28,29.6 43.2,68.8 16,39.2 16,83.2 0,43.2 -15.2,82.4 -15.2,39.2 -43.2,68.8 -28,29.6 -67.2,47.2 -38.4,17.6 -85.6,17.6 z m -138.4,-215.2 q 0,32.8 10.4,60.8 11.2,28 29.6,48.8 19.2,20.8 44,32.8 25.6,12 54.4,12 28.8,0 53.6,-12 25.6,-12 44.8,-32.8 19.2,-21.6 29.6,-49.6 11.2,-28.8 11.2,-61.6 0,-32 -11.2,-60 -10.4,-28.8 -29.6,-49.6 -19.2,-21.6 -44.8,-33.6 -24.8,-12 -53.6,-12 -28.8,0 -54.4,12.8 -24.8,12 -44,33.6 -18.4,20.8 -29.6,49.6 -10.4,28 -10.4,60.8 z"
       style="font-style:normal;font-variant:normal;font-weight:500;font-stretch:normal;font-size:800px;font-family:Raleway;-inkscape-font-specification:'Raleway Medium';letter-spacing:-27px;fill:#7e7e83;fill-opacity:1;stroke-width:10"
       id="path835" />
    <path
       d="m 5374.6114,225.16818 q -57.6,2.4 -100,36.8 -42.4,33.6 -59.2,92 v 261.6 h -27.2 v -416 h 26.4 v 105.6 q 21.6,-44 57.6,-72 36,-28 76.8,-32.8 8,-0.8 14.4,-0.8 7.2,0 11.2,0 z"
       style="font-style:normal;font-variant:normal;font-weight:200;font-stretch:normal;font-family:Raleway;-inkscape-font-specification:'Raleway Ultra-Light';letter-spacing:-24px;fill:#7e7e83;fill-opacity:1"
       id="path837" />
    <path
       d="m 5578.3614,623.56818 q -42.4,0 -79.2,-16.8 -36,-17.6 -63.2,-46.4 -27.2,-29.6 -42.4,-68.8 -15.2,-39.2 -15.2,-82.4 0,-44 15.2,-83.2 16,-39.2 43.2,-68.8 27.2,-29.6 63.2,-46.4 36.8,-17.6 78.4,-17.6 41.6,0 78.4,17.6 36.8,16.8 64,46.4 27.2,29.6 42.4,68.8 16,39.2 16,83.2 0,43.2 -16,82.4 -15.2,39.2 -42.4,68.8 -26.4,28.8 -63.2,46.4 -36.8,16.8 -79.2,16.8 z m -172.8,-213.6 q 0,38.4 13.6,72.8 13.6,34.4 36.8,60 23.2,25.6 54.4,40.8 32,14.4 67.2,14.4 36,0 67.2,-15.2 32,-15.2 55.2,-40.8 24,-25.6 37.6,-60 13.6,-35.2 13.6,-73.6 0,-38.4 -13.6,-72.8 -13.6,-35.2 -37.6,-60.8 -23.2,-25.6 -55.2,-40.8 -31.2,-15.2 -66.4,-15.2 -35.2,0 -66.4,15.2 -31.2,15.2 -55.2,41.6 -23.2,25.6 -37.6,60.8 -13.6,34.4 -13.6,73.6 z"
       style="font-style:normal;font-variant:normal;font-weight:200;font-stretch:normal;font-family:Raleway;-inkscape-font-specification:'Raleway Ultra-Light';letter-spacing:-24px;fill:#7e7e83;fill-opacity:1"
       id="path839" />
    <path
       d="m 6026.2364,623.56818 q -43.2,0 -80,-18.4 -36.8,-18.4 -64,-48 -26.4,-30.4 -41.6,-68.8 -14.4,-38.4 -14.4,-79.2 0,-43.2 14.4,-82.4 14.4,-39.2 40,-68.8 25.6,-29.6 60.8,-47.2 35.2,-17.6 76.8,-17.6 28,0 52.8,8 24.8,8 45.6,22.4 21.6,13.6 38.4,32 17.6,18.4 29.6,38.4 V 31.568176 h 27.2 V 572.36818 q 0,17.6 14.4,17.6 v 25.6 q -2.4,0.8 -6.4,0.8 -14.4,0 -24,-10.4 -9.6,-11.2 -9.6,-24.8 v -50.4 q -12.8,20.8 -31.2,38.4 -17.6,16.8 -38.4,28.8 -20.8,12 -44,18.4 -23.2,7.2 -46.4,7.2 z m 3.2,-25.6 q 23.2,0 49.6,-9.6 26.4,-9.6 48.8,-25.6 23.2,-16.8 38.4,-38.4 16,-22.4 18.4,-46.4 v -143.2 q -8.8,-24 -26.4,-44.8 -16.8,-21.6 -39.2,-36.8 -22.4,-16 -48,-24.8 -24.8,-9.6 -48.8,-9.6 -38.4,0 -69.6,16.8 -31.2,16 -52.8,43.2 -21.6,26.4 -33.6,60.8 -12,33.6 -12,69.6 0,37.6 13.6,72 13.6,33.6 36.8,60 24,25.6 56,41.6 32,15.2 68.8,15.2 z"
       style="font-style:normal;font-variant:normal;font-weight:200;font-stretch:normal;font-family:Raleway;-inkscape-font-specification:'Raleway Ultra-Light';letter-spacing:-24px;fill:#7e7e83;fill-opacity:1"
       id="path841" />
    <path
       d="m 6489.7364,623.56818 q -42.4,0 -79.2,-16.8 -36,-17.6 -63.2,-46.4 -27.2,-29.6 -42.4,-68.8 -15.2,-39.2 -15.2,-82.4 0,-44 15.2,-83.2 16,-39.2 43.2,-68.8 27.2,-29.6 63.2,-46.4 36.8,-17.6 78.4,-17.6 41.6,0 78.4,17.6 36.8,16.8 64,46.4 27.2,29.6 42.4,68.8 16,39.2 16,83.2 0,43.2 -16,82.4 -15.2,39.2 -42.4,68.8 -26.4,28.8 -63.2,46.4 -36.8,16.8 -79.2,16.8 z m -172.8,-213.6 q 0,38.4 13.6,72.8 13.6,34.4 36.8,60 23.2,25.6 54.4,40.8 32,14.4 67.2,14.4 36,0 67.2,-15.2 32,-15.2 55.2,-40.8 24,-25.6 37.6,-60 13.6,-35.2 13.6,-73.6 0,-38.4 -13.6,-72.8 -13.6,-35.2 -37.6,-60.8 -23.2,-25.6 -55.2,-40.8 -31.2,-15.2 -66.4,-15.2 -35.2,0 -66.4,15.2 -31.2,15.2 -55.2,41.6 -23.2,25.6 -37.6,60.8 -13.6,34.4 -13.6,73.6 z"
       style="font-style:normal;font-variant:normal;font-weight:200;font-stretch:normal;font-family:Raleway;-inkscape-font-specification:'Raleway Ultra-Light';letter-spacing:-24px;fill:#7e7e83;fill-opacity:1"
       id="path843" />
    <path
       d="m 6882.7864,615.56818 -177.6,-416 h 28.8 l 162.4,384.8 163.2,-384.8 h 28 l -177.6,416 z"
       style="font-style:normal;font-variant:normal;font-weight:200;font-stretch:normal;font-family:Raleway;-inkscape-font-specification:'Raleway Ultra-Light';letter-spacing:-24px;fill:#7e7e83;fill-opacity:1"
       id="path845" />
    <path
       d="m 7236.1989,623.56818 q -28.8,0 -53.6,-9.6 -24.8,-10.4 -43.2,-27.2 -18.4,-17.6 -28.8,-40.8 -10.4,-23.2 -10.4,-50.4 0,-26.4 12.8,-48 12.8,-22.4 35.2,-38.4 23.2,-16 54.4,-24.8 32,-8.8 69.6,-8.8 35.2,0 70.4,5.6 36,5.6 64.8,16.8 v -44.8 q 0,-62.4 -36,-99.2 -35.2,-37.6 -95.2,-37.6 -30.4,0 -64.8,13.6 -34.4,12.8 -68.8,37.6 l -12.8,-20 q 80,-54.4 148,-54.4 72.8,0 114.4,43.2 42.4,43.2 42.4,118.4 v 217.6 q 0,17.6 14.4,17.6 v 25.6 q -2.4,0.8 -4.8,0.8 -1.6,0 -3.2,0 -13.6,0 -23.2,-9.6 -8.8,-10.4 -8.8,-24.8 v -36.8 q -28.8,37.6 -74.4,58.4 -45.6,20 -98.4,20 z m 3.2,-23.2 q 29.6,0 59.2,-8 30.4,-8 54.4,-21.6 24,-14.4 39.2,-32.8 15.2,-18.4 15.2,-39.2 v -78.4 q -62.4,-24 -132.8,-24 -32.8,0 -60,7.2 -27.2,7.2 -47.2,20 -19.2,12.8 -30.4,31.2 -10.4,17.6 -10.4,40 0,22.4 8.8,41.6 8.8,19.2 24,33.6 15.2,14.4 35.2,22.4 20.8,8 44.8,8 z"
       style="font-style:normal;font-variant:normal;font-weight:200;font-stretch:normal;font-family:Raleway;-inkscape-font-specification:'Raleway Ultra-Light';letter-spacing:-24px;fill:#7e7e83;fill-opacity:1"
       id="path847" />
    <path
       d="m 7539.6364,31.568176 h 26.4 V 544.36818 q 0,23.2 14.4,36.8 14.4,13.6 37.6,13.6 8.8,0 20.8,-1.6 12.8,-2.4 23.2,-6.4 l 6.4,22.4 q -12,4 -30.4,7.2 -17.6,3.2 -30.4,3.2 -30.4,0 -49.6,-18.4 -18.4,-19.2 -18.4,-51.2 z"
       style="font-style:normal;font-variant:normal;font-weight:200;font-stretch:normal;font-family:Raleway;-inkscape-font-specification:'Raleway Ultra-Light';letter-spacing:-24px;fill:#7e7e83;fill-opacity:1"
       id="path849" />
    <path
       d="m 8040.4739,615.56818 h -27.2 v -232 q 0,-164.8 -109.6,-164.8 -28,0 -54.4,10.4 -26.4,10.4 -48.8,28.8 -22.4,18.4 -39.2,44 -16.8,24.8 -24.8,53.6 v 260 h -27.2 V 31.568176 h 27.2 V 303.56818 q 12.8,-24.8 31.2,-44.8 19.2,-20.8 41.6,-35.2 22.4,-14.4 47.2,-22.4 25.6,-8 52,-8 67.2,0 99.2,48.8 32.8,48.8 32.8,138.4 z"
       style="font-style:normal;font-variant:normal;font-weight:200;font-stretch:normal;font-family:Raleway;-inkscape-font-specification:'Raleway Ultra-Light';letter-spacing:-24px;fill:#7e7e83;fill-opacity:1"
       id="path851" />
    <path
       d="m 8311.9239,623.56818 q -42.4,0 -79.2,-16.8 -36,-17.6 -63.2,-46.4 -27.2,-29.6 -42.4,-68.8 -15.2,-39.2 -15.2,-82.4 0,-44 15.2,-83.2 16,-39.2 43.2,-68.8 27.2,-29.6 63.2,-46.4 36.8,-17.6 78.4,-17.6 41.6,0 78.4,17.6 36.8,16.8 64,46.4 27.2,29.6 42.4,68.8 16,39.2 16,83.2 0,43.2 -16,82.4 -15.2,39.2 -42.4,68.8 -26.4,28.8 -63.2,46.4 -36.8,16.8 -79.2,16.8 z m -172.8,-213.6 q 0,38.4 13.6,72.8 13.6,34.4 36.8,60 23.2,25.6 54.4,40.8 32,14.4 67.2,14.4 36,0 67.2,-15.2 32,-15.2 55.2,-40.8 24,-25.6 37.6,-60 13.6,-35.2 13.6,-73.6 0,-38.4 -13.6,-72.8 -13.6,-35.2 -37.6,-60.8 -23.2,-25.6 -55.2,-40.8 -31.2,-15.2 -66.4,-15.2 -35.2,0 -66.4,15.2 -31.2,15.2 -55.2,41.6 -23.2,25.6 -37.6,60.8 -13.6,34.4 -13.6,73.6 z"
       style="font-style:normal;font-variant:normal;font-weight:200;font-stretch:normal;font-family:Raleway;-inkscape-font-specification:'Raleway Ultra-Light';letter-spacing:-24px;fill:#7e7e83;fill-opacity:1"
       id="path853" />
  </g>
  <g
     aria-label="web developer"
     style="font-style:normal;font-weight:normal;font-size:400px;line-height:1.25;font-family:sans-serif;letter-spacing:0px;word-spacing:0px;fill:#000000;fill-opacity:1;stroke:none;stroke-width:10"
     id="text1131">
    <path
       d="m 2532.1552,1018.3961 h -17.9167 l -46.4583,-160.83331 q -1.0417,-3.33333 -1.875,-7.70833 -0.8333,-4.58334 -1.4583,-10.20834 h -1.0417 q -0.4167,2.08334 -1.25,6.45834 -0.625,4.375 -2.9167,11.04166 l -52.0833,161.24998 h -17.9167 l -64.375,-213.33331 h 21.25 l 49.5834,170.20833 q 1.0416,3.54167 1.6666,8.125 0.8334,4.375 1.25,9.79167 h 1.6667 q 0.2083,-2.91667 1.25,-7.29167 1.0417,-4.58333 2.7083,-10.625 l 54.1667,-170.20833 h 13.125 l 48.3333,170.20833 q 1.0417,3.33333 1.4584,7.70833 0.625,4.375 1.4583,10.20834 h 1.6667 q 0,-2.91667 0.8333,-7.29167 0.8333,-4.58333 2.7083,-10.625 l 50.625,-170.20833 h 19.7917 z"
       style="font-style:normal;font-variant:normal;font-weight:normal;font-stretch:normal;font-size:426.66665649px;font-family:'Homizio Nova';-inkscape-font-specification:'Homizio Nova';letter-spacing:315px;fill:#7e7e83;fill-opacity:1;stroke-width:10"
       id="path856" />
    <path
       d="m 2953.4052,912.56279 q 0,22.08333 5.2083,39.58333 5.2084,17.29167 15,29.375 10,11.875 23.9584,18.33333 14.1666,6.25005 31.875,6.25005 36.25,0 63.9583,-22.70838 l 8.75,14.375 q -35.8333,25.83338 -76.6667,25.83338 -20.625,0 -37.5,-7.5 -16.875,-7.7084 -29.1666,-22.08338 -12.0834,-14.58333 -18.75,-35.625 -6.6667,-21.04167 -6.6667,-47.91667 0,-23.125 6.875,-43.12499 7.0833,-20.20834 19.5833,-35.20834 12.7084,-15 30.2084,-23.54166 17.7083,-8.75 38.9583,-8.75 20,0 35.2083,7.29166 15.4167,7.29167 25.8334,20.83334 10.4166,13.33333 15.8333,32.70833 5.4167,19.375 5.4167,43.33333 v 8.54167 z m 137.9167,-17.5 q -0.625,-18.33334 -5.2084,-32.70833 -4.375,-14.58334 -12.5,-24.58334 -8.125,-10 -19.5833,-15.20833 -11.4583,-5.20833 -25.8333,-5.20833 -15,0 -27.5,5.20833 -12.5,5 -22.0834,14.79167 -9.5833,9.79166 -15.8333,24.375 -6.25,14.58333 -8.5417,33.33333 z"
       style="font-style:normal;font-variant:normal;font-weight:normal;font-stretch:normal;font-size:426.66665649px;font-family:'Homizio Nova';-inkscape-font-specification:'Homizio Nova';letter-spacing:315px;fill:#7e7e83;fill-opacity:1;stroke-width:10"
       id="path858" />
    <path
       d="m 3465.6969,980.47945 v 37.91665 h -19.1667 V 702.56279 h 19.1667 v 146.45833 q 1.6667,-3.54166 6.4583,-11.45833 5,-7.91667 13.5417,-16.04167 8.75,-8.125 21.4583,-14.375 12.7084,-6.25 30.2084,-6.875 20.2083,-0.625 37.9166,7.91667 17.7084,8.33333 30.625,23.54167 12.9167,15 20.4167,35.83333 7.5,20.83333 7.5,44.79166 0,26.45834 -7.0833,47.29167 -7.0834,20.625 -20,34.79167 -12.7084,14.16671 -30.4167,21.66671 -17.7083,7.5 -38.9583,7.5 -48.125,0 -70.8334,-43.12505 z m 0,-17.70833 q 6.6667,8.75 13.75,16.66667 7.2917,7.70833 16.0417,13.75 8.75,5.83333 19.375,9.37501 10.625,3.5417 24.1666,3.5417 16.4584,0 30.2084,-6.0417 13.75,-6.25001 23.5416,-18.12501 10,-11.875 15.4167,-29.16667 5.625,-17.5 5.625,-40 0,-20 -6.4583,-37.29167 -6.4584,-17.29166 -17.5,-29.99999 -10.8334,-12.91667 -25.2084,-20.20834 -14.1666,-7.5 -29.7916,-7.5 -11.875,0.83334 -21.25,4.16667 -9.1667,3.125 -17.2917,8.75 -7.9167,5.625 -15.2083,13.75 -7.2917,8.125 -15.4167,18.75 z"
       style="font-style:normal;font-variant:normal;font-weight:normal;font-stretch:normal;font-size:426.66665649px;font-family:'Homizio Nova';-inkscape-font-specification:'Homizio Nova';letter-spacing:315px;fill:#7e7e83;fill-opacity:1;stroke-width:10"
       id="path860" />
    <path
       d="m 4556.3219,980.47945 q -22.9166,43.12505 -70.8333,43.12505 -21.25,0 -38.9583,-7.5 -17.7084,-7.5 -30.625,-21.66671 -12.7084,-14.16667 -19.7917,-34.79167 -7.0833,-20.83333 -7.0833,-47.29167 0,-23.95833 7.5,-44.79166 7.5,-20.83333 20.4166,-35.83333 12.9167,-15.20834 30.4167,-23.54167 17.7083,-8.54167 38.125,-7.91667 17.5,0.625 30.2083,6.875 12.7084,6.25 21.25,14.375 8.75,8.125 13.5417,16.04167 5,7.91667 6.6667,11.45833 V 702.56279 h 19.1666 v 315.83331 h -19.1666 v -37.91665 z m 0.8334,-117.29166 q -8.125,-10.625 -15.4167,-18.75 -7.2917,-8.125 -15.4167,-13.75 -7.9166,-5.625 -17.2916,-8.75 -9.1667,-3.33333 -21.0417,-4.16667 -15.625,0 -30,7.5 -14.1667,7.29167 -25.2083,20.20834 -10.8334,12.70833 -17.2917,29.99999 -6.4583,17.29167 -6.4583,37.29167 0,22.5 5.4166,40 5.625,17.29167 15.4167,29.16667 10,11.875 23.75,18.12501 13.75,6.0417 30.2083,6.0417 13.3334,0 23.9584,-3.5417 10.8333,-3.54168 19.5833,-9.37501 8.75,-6.04167 15.8333,-13.75 7.2917,-7.91667 13.9584,-16.66667 z"
       style="font-style:normal;font-variant:normal;font-weight:normal;font-stretch:normal;font-size:426.66665649px;font-family:'Homizio Nova';-inkscape-font-specification:'Homizio Nova';letter-spacing:315px;fill:#7e7e83;fill-opacity:1;stroke-width:10"
       id="path862" />
    <path
       d="m 4936.7384,912.56279 q 0,22.08333 5.2084,39.58333 5.2083,17.29167 15,29.375 10,11.875 23.9583,18.33333 14.1667,6.25005 31.875,6.25005 36.25,0 63.9583,-22.70838 l 8.75,14.375 q -35.8333,25.83338 -76.6666,25.83338 -20.625,0 -37.5,-7.5 -16.875,-7.7084 -29.1667,-22.08338 -12.0833,-14.58333 -18.75,-35.625 -6.6667,-21.04167 -6.6667,-47.91667 0,-23.125 6.875,-43.12499 7.0834,-20.20834 19.5834,-35.20834 12.7083,-15 30.2083,-23.54166 17.7083,-8.75 38.9583,-8.75 20,0 35.2084,7.29166 15.4166,7.29167 25.8333,20.83334 10.4167,13.33333 15.8333,32.70833 5.4167,19.375 5.4167,43.33333 v 8.54167 z m 137.9167,-17.5 q -0.625,-18.33334 -5.2083,-32.70833 -4.375,-14.58334 -12.5,-24.58334 -8.125,-10 -19.5834,-15.20833 -11.4583,-5.20833 -25.8333,-5.20833 -15,0 -27.5,5.20833 -12.5,5 -22.0833,14.79167 -9.5834,9.79166 -15.8334,24.375 -6.25,14.58333 -8.5416,33.33333 z"
       style="font-style:normal;font-variant:normal;font-weight:normal;font-stretch:normal;font-size:426.66665649px;font-family:'Homizio Nova';-inkscape-font-specification:'Homizio Nova';letter-spacing:315px;fill:#7e7e83;fill-opacity:1;stroke-width:10"
       id="path864" />
    <path
       d="m 5525.0719,1018.3961 h -17.5 l -82.5,-213.33331 h 21.4584 l 63.5416,169.79166 q 2.2917,6.04167 3.75,11.66667 1.6667,5.625 2.7084,10.625 h 0.8333 q 1.0417,-6.66667 2.7083,-11.875 1.6667,-5.41667 3.3334,-9.58333 l 65.625,-170.625 h 20.8333 z"
       style="font-style:normal;font-variant:normal;font-weight:normal;font-stretch:normal;font-size:426.66665649px;font-family:'Homizio Nova';-inkscape-font-specification:'Homizio Nova';letter-spacing:315px;fill:#7e7e83;fill-opacity:1;stroke-width:10"
       id="path866" />
    <path
       d="m 5960.9052,912.56279 q 0,22.08333 5.2083,39.58333 5.2084,17.29167 15,29.375 10,11.875 23.9584,18.33333 14.1666,6.25005 31.875,6.25005 36.25,0 63.9583,-22.70838 l 8.75,14.375 q -35.8333,25.83338 -76.6667,25.83338 -20.625,0 -37.5,-7.5 -16.875,-7.7084 -29.1666,-22.08338 -12.0834,-14.58333 -18.75,-35.625 -6.6667,-21.04167 -6.6667,-47.91667 0,-23.125 6.875,-43.12499 7.0833,-20.20834 19.5833,-35.20834 12.7084,-15 30.2084,-23.54166 17.7083,-8.75 38.9583,-8.75 20,0 35.2083,7.29166 15.4167,7.29167 25.8334,20.83334 10.4166,13.33333 15.8333,32.70833 5.4167,19.375 5.4167,43.33333 v 8.54167 z m 137.9167,-17.5 q -0.625,-18.33334 -5.2084,-32.70833 -4.375,-14.58334 -12.5,-24.58334 -8.125,-10 -19.5833,-15.20833 -11.4583,-5.20833 -25.8333,-5.20833 -15,0 -27.5,5.20833 -12.5,5 -22.0834,14.79167 -9.5833,9.79166 -15.8333,24.375 -6.25,14.58333 -8.5417,33.33333 z"
       style="font-style:normal;font-variant:normal;font-weight:normal;font-stretch:normal;font-size:426.66665649px;font-family:'Homizio Nova';-inkscape-font-specification:'Homizio Nova';letter-spacing:315px;fill:#7e7e83;fill-opacity:1;stroke-width:10"
       id="path868" />
    <path
       d="M 6477.3637,1018.3961 H 6458.197 V 702.56279 h 19.1667 z"
       style="font-style:normal;font-variant:normal;font-weight:normal;font-stretch:normal;font-size:426.66665649px;font-family:'Homizio Nova';-inkscape-font-specification:'Homizio Nova';letter-spacing:315px;fill:#7e7e83;fill-opacity:1;stroke-width:10"
       id="path870" />
    <path
       d="m 6920.4887,1023.6045 q -23.5417,0 -42.2917,-8.125 -18.75,-8.125 -31.875,-22.70838 -12.9166,-14.79167 -20,-35 -6.875,-20.41667 -6.875,-44.79167 0,-26.45833 7.2917,-47.49999 7.5,-21.04167 21.0417,-35.625 13.75,-14.58334 32.7083,-22.29167 19.1667,-7.70833 42.2917,-7.70833 22.7083,0 40.8333,7.70833 18.3333,7.70833 31.0417,22.29167 12.9166,14.375 19.7916,35.20833 6.875,20.83333 6.875,47.08333 0,24.58333 -7.0833,45 -6.875,20.41667 -20,35.20833 -12.9167,14.79165 -31.6667,23.12505 -18.75,8.125 -42.0833,8.125 z m 1.4583,-206.25004 q -18.75,0 -33.9583,6.66666 -15.2083,6.45834 -26.0417,18.75 -10.8333,12.29167 -16.6666,30.20833 -5.8334,17.70834 -5.8334,40.41667 0,20.83333 5.625,37.91667 5.625,17.08333 16.25,29.375 10.625,12.08333 25.625,18.75 15.2084,6.66671 34.1667,6.66671 19.1667,0 34.1667,-6.45838 15,-6.45833 25.2083,-18.54167 10.2083,-12.29166 15.4167,-29.79166 5.4166,-17.5 5.4166,-39.58334 0,-46.04166 -20.625,-70.20833 -20.4166,-24.16666 -58.75,-24.16666 z"
       style="font-style:normal;font-variant:normal;font-weight:normal;font-stretch:normal;font-size:426.66665649px;font-family:'Homizio Nova';-inkscape-font-specification:'Homizio Nova';letter-spacing:315px;fill:#7e7e83;fill-opacity:1;stroke-width:10"
       id="path872" />
    <path
       d="m 7377.3634,842.77112 q 22.7083,-43.125 70.8333,-43.125 21.25,0 38.9583,7.5 17.7084,7.5 30.4167,21.66667 12.9167,14.16667 20,35 7.0833,20.625 7.0833,47.08333 0,24.16667 -7.5,45 -7.5,20.625 -20.4166,35.83333 -12.9167,15.00005 -30.625,23.54165 -17.7084,8.3334 -37.9167,7.7084 -17.5,-0.625 -30.2083,-6.875 -12.7084,-6.25 -21.4584,-14.375 -8.5416,-8.12505 -13.5416,-16.04171 -4.7917,-7.91667 -6.4584,-11.45834 v 142.70835 h -19.1666 V 804.85446 h 19.1666 v 37.91666 z m -0.8334,117.29167 q 8.125,10.625 15.4167,18.75 7.2917,8.125 15.2083,13.75 8.125,5.625 17.2917,8.95831 9.375,3.125 21.25,3.9584 15.625,0 29.7917,-7.29171 14.375,-7.5 25.2083,-20.20834 11.0417,-12.91666 17.5,-30.20833 6.4583,-17.29167 6.4583,-37.29167 0,-22.5 -5.625,-39.79166 -5.4166,-17.5 -15.4166,-29.375 -9.7917,-11.875 -23.5417,-17.91667 -13.75,-6.25 -30.2083,-6.25 -13.5417,0 -24.1667,3.54167 -10.625,3.54167 -19.375,9.58333 -8.75,5.83334 -16.0417,13.75 -7.0833,7.70834 -13.75,16.45834 z"
       style="font-style:normal;font-variant:normal;font-weight:normal;font-stretch:normal;font-size:426.66665649px;font-family:'Homizio Nova';-inkscape-font-specification:'Homizio Nova';letter-spacing:315px;fill:#7e7e83;fill-opacity:1;stroke-width:10"
       id="path874" />
    <path
       d="m 7896.7387,912.56279 q 0,22.08333 5.2083,39.58333 5.2084,17.29167 15,29.375 10,11.875 23.9584,18.33333 14.1666,6.25005 31.875,6.25005 36.25,0 63.9583,-22.70838 l 8.75,14.375 q -35.8333,25.83338 -76.6667,25.83338 -20.625,0 -37.5,-7.5 -16.875,-7.7084 -29.1666,-22.08338 -12.0834,-14.58333 -18.75,-35.625 -6.6667,-21.04167 -6.6667,-47.91667 0,-23.125 6.875,-43.12499 7.0833,-20.20834 19.5833,-35.20834 12.7084,-15 30.2084,-23.54166 17.7083,-8.75 38.9583,-8.75 20,0 35.2083,7.29166 15.4167,7.29167 25.8334,20.83334 10.4166,13.33333 15.8333,32.70833 5.4167,19.375 5.4167,43.33333 v 8.54167 z m 137.9167,-17.5 q -0.625,-18.33334 -5.2084,-32.70833 -4.375,-14.58334 -12.5,-24.58334 -8.125,-10 -19.5833,-15.20833 -11.4583,-5.20833 -25.8333,-5.20833 -15,0 -27.5,5.20833 -12.5,5 -22.0834,14.79167 -9.5833,9.79166 -15.8333,24.375 -6.25,14.58333 -8.5417,33.33333 z"
       style="font-style:normal;font-variant:normal;font-weight:normal;font-stretch:normal;font-size:426.66665649px;font-family:'Homizio Nova';-inkscape-font-specification:'Homizio Nova';letter-spacing:315px;fill:#7e7e83;fill-opacity:1;stroke-width:10"
       id="path876" />
    <path
       d="m 8495.0717,825.06279 q -5.4167,-3.75 -11.25,-5.20833 -5.8333,-1.66667 -12.9167,-1.66667 -36.6666,0 -57.7083,42.29167 v 157.91664 h -18.75 V 805.06279 h 18.75 v 33.54167 q 13.125,-19.58334 27.7083,-28.54167 14.7917,-9.16667 32.9167,-9.16667 2.9167,0 6.6667,0.625 3.75,0.625 7.5,1.45834 3.9583,0.83333 7.2916,2.08333 3.5417,1.04167 5.8334,1.875 z"
       style="font-style:normal;font-variant:normal;font-weight:normal;font-stretch:normal;font-size:426.66665649px;font-family:'Homizio Nova';-inkscape-font-specification:'Homizio Nova';letter-spacing:315px;fill:#7e7e83;fill-opacity:1;stroke-width:10"
       id="path878" />
  </g>
  <g
     aria-label="{"
     transform="scale(0.99585228,1.004165)"
     style="font-style:normal;font-weight:normal;font-size:417.49243164px;line-height:1.25;font-family:sans-serif;letter-spacing:0px;word-spacing:0px;fill:#4eb1ec;fill-opacity:1;stroke:#4eb1ec;stroke-width:19.72405243;stroke-miterlimit:4;stroke-dasharray:none;stroke-opacity:1"
     id="text1059">
    <path
       d="m 260.07086,233.03135 c 0,-44.95002 30.40736,-80.64562 72.71326,-84.6118 25.11913,-2.64412 34.37354,-9.25441 34.37354,-27.76324 0,-15.86472 -11.89853,-26.44119 -31.72942,-26.44119 -72.71327,0 -129.56182,60.81473 -129.56182,138.81623 v 228.71626 c 0,48.9162 -31.72942,81.96768 -79.32356,85.93386 -21.15295,1.32206 -31.729421,10.57647 -31.729421,27.76324 0,18.50883 10.576471,26.44119 31.729421,27.76325 47.59414,3.96618 79.32356,38.33972 79.32356,85.93386 v 228.71626 c 0,78.0015 56.84855,138.81622 129.56182,138.81622 19.83089,0 31.72942,-10.5765 31.72942,-26.4412 0,-18.5088 -9.25441,-25.1191 -34.37354,-27.7632 -42.3059,-3.9662 -72.71326,-39.6618 -72.71326,-84.61182 V 689.14182 c 0,-54.20444 -14.54266,-81.96768 -58.17062,-113.69711 43.62796,-31.72942 58.17062,-59.49267 58.17062,-113.6971 z"
       style="font-style:normal;font-variant:normal;font-weight:normal;font-stretch:normal;font-size:1322.05932617px;font-family:'Nimbus Mono L';-inkscape-font-specification:'Nimbus Mono L';fill:#4eb1ec;fill-opacity:1;stroke:#4eb1ec;stroke-width:19.72405243;stroke-miterlimit:4;stroke-dasharray:none;stroke-opacity:1"
       id="path881" />
  </g>
  <g
     aria-label="mr"
     transform="scale(0.99585228,1.004165)"
     style="font-style:normal;font-weight:normal;font-size:417.49243164px;line-height:1.25;font-family:sans-serif;letter-spacing:0px;word-spacing:0px;fill:#7e7e83;fill-opacity:1;stroke:none;stroke-width:10.43731117"
     id="text1063">
    <path
       d="M 499.42218,822.61496 V 322.25027 q 0,-11.82896 10.64606,-20.10922 10.64606,-8.28027 27.20659,-8.28027 15.37764,0 26.0237,8.28027 10.64605,8.28026 10.64605,20.10922 v 54.41318 q 21.29212,-39.03555 61.51056,-63.87635 41.40133,-26.02369 95.81451,-26.02369 56.77898,0 101.729,33.12107 44.95002,31.93817 66.24213,85.16845 29.57238,-57.96186 78.07109,-87.53425 48.49873,-30.75527 101.72903,-30.75527 80.4368,0 139.5816,60.32766 59.1448,60.32765 59.1448,160.87375 v 314.65014 q 0,11.82896 -11.829,21.29212 -10.646,9.46316 -27.2066,9.46316 -15.3776,0 -27.2066,-9.46316 -10.646,-9.46316 -10.646,-21.29212 V 507.96482 q 0,-69.79082 -41.4014,-110.00926 -40.2184,-40.21844 -93.4487,-40.21844 -54.4132,0 -96.9974,41.40134 -41.40133,40.21844 -41.40133,104.09478 v 320.56462 q 0,29.57238 -39.03555,29.57238 -37.85264,0 -37.85264,-29.57238 V 504.41614 q 0,-62.69345 -40.21844,-104.09479 -39.03555,-42.58423 -94.63162,-42.58423 -55.59608,0 -98.18031,41.40134 -41.40134,40.21844 -41.40134,108.82636 v 314.65014 q 0,11.82896 -11.82895,21.29212 -11.82895,9.46316 -27.20659,9.46316 -15.37764,0 -27.20659,-9.46316 -10.64606,-9.46316 -10.64606,-21.29212 z"
       style="font-style:normal;font-variant:normal;font-weight:normal;font-stretch:normal;font-size:1182.89526367px;font-family:Dosis;-inkscape-font-specification:Dosis;fill:#7e7e83;fill-opacity:1;stroke-width:10.43731117"
       id="path884" />
    <path
       d="M 1421.2488,822.61496 V 322.25027 q 0,-11.82896 10.646,-20.10922 10.6461,-8.28027 27.2066,-8.28027 15.3777,0 26.0237,8.28027 10.6461,8.28026 10.6461,20.10922 v 57.96186 q 21.2921,-39.03554 62.6934,-66.24213 41.4014,-27.20659 95.8145,-27.20659 h 41.4014 q 11.8289,0 21.2921,10.64606 9.4632,10.64605 9.4632,24.8408 0,14.19474 -9.4632,24.8408 -9.4632,10.64605 -21.2921,10.64605 h -41.4014 q -61.5105,0 -108.8263,48.49871 -47.3158,47.31581 -47.3158,124.204 v 292.17513 q 0,11.82896 -11.829,21.29212 -10.646,9.46316 -27.2066,9.46316 -15.3776,0 -27.2066,-9.46316 -10.646,-9.46316 -10.646,-21.29212 z"
       style="font-style:normal;font-variant:normal;font-weight:normal;font-stretch:normal;font-size:1182.89526367px;font-family:Dosis;-inkscape-font-specification:Dosis;fill:#7e7e83;fill-opacity:1;stroke-width:10.43731117"
       id="path886" />
  </g>
  <g
     aria-label="{"
     transform="matrix(-0.99582761,-0.00707623,0.00701765,-1.00414,0,0)"
     style="font-style:normal;font-weight:normal;font-size:417.49243164px;line-height:1.25;font-family:sans-serif;letter-spacing:0px;word-spacing:0px;fill:#4eb1ec;fill-opacity:1;stroke:#4eb1ec;stroke-width:19.72405243;stroke-miterlimit:4;stroke-dasharray:none;stroke-opacity:1"
     id="text1067">
    <path
       d="m -1926.9666,-915.33642 c 0,-44.95002 30.4074,-80.64562 72.7133,-84.6118 25.1191,-2.64408 34.3735,-9.25438 34.3735,-27.76328 0,-15.8647 -11.8985,-26.4411 -31.7294,-26.4411 -72.7133,0 -129.5618,60.81468 -129.5618,138.81618 v 228.71626 c 0,48.9162 -31.7294,81.96768 -79.3236,85.93386 -21.1529,1.32206 -31.7294,10.57648 -31.7294,27.76325 0,18.50883 10.5765,26.44118 31.7294,27.76324 47.5942,3.96618 79.3236,38.33972 79.3236,85.93386 v 228.71626 c 0,78.0015 56.8485,138.816232 129.5618,138.816232 19.8309,0 31.7294,-10.576472 31.7294,-26.441182 0,-18.50884 -9.2544,-25.11913 -34.3735,-27.76325 -42.3059,-3.96618 -72.7133,-39.66178 -72.7133,-84.6118 v -228.71626 c 0,-54.20443 -14.5426,-81.96768 -58.1706,-113.6971 43.628,-31.72943 58.1706,-59.49267 58.1706,-113.69711 z"
       style="font-style:normal;font-variant:normal;font-weight:normal;font-stretch:normal;font-size:1322.05932617px;font-family:'Nimbus Mono L';-inkscape-font-specification:'Nimbus Mono L';fill:#4eb1ec;fill-opacity:1;stroke:#4eb1ec;stroke-width:19.72405243;stroke-miterlimit:4;stroke-dasharray:none;stroke-opacity:1"
       id="path889" />
  </g>
</svg>
